<svg xmlns="http://www.w3.org/2000/svg" viewBox="0 0 1600 800" role="img" aria-labelledby="title desc">
  <title id="title">Example detonation map</title>
  <desc id="desc">A stylized map showing a camera marker, a detonation marker, and a line between them.</desc>
  <defs>
    <linearGradient id="water" x1="0" y1="0" x2="0" y2="1">
      <stop offset="0%" stop-color="#b9dbe6"/>
      <stop offset="100%" stop-color="#9ec8d7"/>
    </linearGradient>
    <filter id="shadow" x="-20%" y="-20%" width="140%" height="140%">
      <feDropShadow dx="0" dy="2" stdDeviation="4" flood-color="#000000" flood-opacity="0.18"/>
    </filter>
  </defs>

  <rect width="1600" height="800" fill="#f4efe6"/>
  <path d="M0 800 L520 800 L700 620 L860 700 L1000 610 L1120 700 L1300 640 L1600 610 L1600 800 Z" fill="url(#water)" opacity="0.95"/>

  <g opacity="0.95">
    <path d="M20 120 C120 60, 210 40, 320 80 S520 120, 650 90 S870 70, 1030 115 S1290 145, 1500 95 S1600 70, 1600 70" fill="none" stroke="#a8cfa3" stroke-width="6"/>
    <path d="M80 320 C190 250, 320 240, 420 300 S620 350, 760 290 S980 250, 1140 305 S1380 370, 1540 330" fill="none" stroke="#d7c4ec" stroke-width="5" opacity="0.7"/>
    <path d="M150 560 C280 520, 360 490, 510 525 S820 620, 1040 590 S1360 520, 1600 530" fill="none" stroke="#f6b182" stroke-width="8"/>
    <path d="M820 20 L840 800" stroke="#bfa7db" stroke-width="5" opacity="0.85"/>
    <path d="M910 0 L1180 0 L1260 90 L1070 140 L960 90 Z" fill="#cae2b5" opacity="0.85"/>
    <path d="M940 170 L1080 170 L1080 280 L900 280 L900 210 Z" fill="#9dd3ea" opacity="0.9"/>
  </g>

  <g stroke="#ffffff" stroke-width="8" stroke-linecap="round" opacity="0.95">
    <path d="M300 470 C420 380, 520 320, 670 280 S860 250, 970 300 S1130 360, 1290 330 S1470 260, 1600 250"/>
    <path d="M80 200 C190 220, 270 260, 360 340 S510 500, 670 560"/>
    <path d="M1180 120 C1240 230, 1260 340, 1260 460 S1270 640, 1300 800"/>
    <path d="M1110 300 C1000 360, 930 450, 860 530"/>
    <path d="M1030 380 C1160 430, 1300 450, 1450 420"/>
    <path d="M210 610 C290 560, 370 530, 450 520"/>
  </g>

  <g opacity="0.35">
    <path d="M220 130 L300 220 L360 140 L430 210 L500 120 L610 180 L560 290 L410 320 L260 280 Z" fill="#d9d0e6"/>
    <path d="M980 270 L1150 260 L1230 340 L1120 450 L960 420 Z" fill="#d7f0c7"/>
    <path d="M1220 460 L1420 450 L1490 560 L1360 640 L1210 590 Z" fill="#ead6d1"/>
    <path d="M500 350 L660 360 L720 500 L580 570 L420 490 Z" fill="#cde0f5"/>
  </g>

  <g stroke="#d0d0d0" stroke-width="2" opacity="0.75">
    <path d="M210 240 L250 310 L330 360 L390 420 L470 450"/>
    <path d="M620 190 L660 240 L720 300 L770 360 L820 410"/>
    <path d="M1080 250 L1150 300 L1220 340 L1300 380"/>
    <path d="M1280 520 L1340 560 L1400 610"/>
  </g>

  <g filter="url(#shadow)">
    <rect x="12" y="12" width="34" height="64" rx="4" fill="#262b31"/>
    <rect x="12" y="78" width="34" height="34" rx="4" fill="#262b31"/>
    <path d="M29 25 V49 M17 37 H41" stroke="#ffffff" stroke-width="3" stroke-linecap="round"/>
    <path d="M17 95 H41" stroke="#ffffff" stroke-width="3" stroke-linecap="round"/>
  </g>

  <g transform="translate(585 385)" filter="url(#shadow)">
    <path d="M0 -8 C14 -8 26 4 26 18 C26 39 0 62 0 62 C0 62 -26 39 -26 18 C-26 4 -14 -8 0 -8 Z" fill="#46b6ea"/>
    <circle cx="0" cy="18" r="10" fill="#ffffff" opacity="0.96"/>
    <rect x="-8" y="10" width="16" height="12" rx="2" fill="#46b6ea"/>
    <circle cx="0" cy="16" r="3" fill="#ffffff"/>
    <path d="M-12 12 h4 l2 -4 h12 l2 4 h4" fill="none" stroke="#ffffff" stroke-width="2" stroke-linecap="round" stroke-linejoin="round"/>
  </g>

  <g transform="translate(940 400)" filter="url(#shadow)">
    <path d="M0 -8 C14 -8 26 4 26 18 C26 39 0 62 0 62 C0 62 -26 39 -26 18 C-26 4 -14 -8 0 -8 Z" fill="#ec5a3c"/>
    <path d="M0 4 L13 28 H-13 Z" fill="#ffffff"/>
    <rect x="-2" y="11" width="4" height="9" rx="2" fill="#ec5a3c"/>
    <circle cx="0" cy="24" r="2" fill="#ec5a3c"/>
  </g>

  <path d="M610 410 C710 408, 780 404, 860 402 S914 401, 930 400" fill="none" stroke="#ef7d64" stroke-width="3.5" opacity="0.9"/>

  <g filter="url(#shadow)">
    <rect x="12" y="746" width="62" height="22" fill="#595959" opacity="0.92"/>
    <rect x="12" y="770" width="104" height="18" fill="#595959" opacity="0.92"/>
    <text x="18" y="761" fill="#ffffff" font-family="Arial, sans-serif" font-size="12">500 m</text>
    <text x="18" y="783" fill="#ffffff" font-family="Arial, sans-serif" font-size="12">2000 ft</text>
  </g>

  <g filter="url(#shadow)">
    <rect x="1360" y="776" width="228" height="18" fill="#ffffff" opacity="0.92"/>
    <rect x="1366" y="781" width="12" height="8" fill="#ffd84a"/>
    <rect x="1379" y="781" width="12" height="8" fill="#2a6db1"/>
    <text x="1396" y="789" fill="#4d4d4d" font-family="Arial, sans-serif" font-size="12">Leaflet | OpenStreetMap contributors</text>
  </g>
</svg>
